name Walk9.mot
datacolumns 19
datarows 20
range 2.34400000 2.36300000
endheader

                time	   L_ground_force_vx	   L_ground_force_vy	   L_ground_force_vz	   L_ground_force_px	   L_ground_force_py	   L_ground_force_pz	   R_ground_force_vx	   R_ground_force_vy	   R_ground_force_vz	   R_ground_force_px	   R_ground_force_py	   R_ground_force_pz	   L_ground_torque_x	   L_ground_torque_y	   L_ground_torque_z	   R_ground_torque_x	   R_ground_torque_y	   R_ground_torque_z	
          2.34400000	         19.08804970	         69.66281002	          0.09227081	          0.48888451	          0.00000000	          0.05437459	          0.00000000	          0.00000000	          0.00000000	          0.00000000	          0.00000000	          0.00000000	          0.00000000	          0.09195601	          0.00000000	          0.00000000	          0.00000000	          0.00000000	
          2.34500000	         17.70459022	         65.40598877	         -0.22308189	          0.48926153	          0.00000000	          0.05413207	          0.00000000	          0.00000000	          0.00000000	          0.00000000	          0.00000000	          0.00000000	          0.00000000	          0.10321989	          0.00000000	          0.00000000	          0.00000000	          0.00000000	
          2.34600000	         16.38415249	         61.35204798	         -0.51217809	          0.48903028	          0.00000000	          0.05390327	          0.00000000	          0.00000000	          0.00000000	          0.00000000	          0.00000000	          0.00000000	          0.00000000	          0.10582486	          0.00000000	          0.00000000	          0.00000000	          0.00000000	
          2.34700000	         15.12431231	         57.45531562	         -0.76877436	          0.48858523	          0.00000000	          0.05338686	          0.00000000	          0.00000000	          0.00000000	          0.00000000	          0.00000000	          0.00000000	          0.00000000	          0.10386473	          0.00000000	          0.00000000	          0.00000000	          0.00000000	
          2.34800000	         13.92515499	         53.73437235	         -1.00082297	          0.48847472	          0.00000000	          0.05254945	          0.00000000	          0.00000000	          0.00000000	          0.00000000	          0.00000000	          0.00000000	          0.00000000	          0.10201048	          0.00000000	          0.00000000	          0.00000000	          0.00000000	
          2.34900000	         12.78201990	         50.25089384	         -1.23067813	          0.48896308	          0.00000000	          0.05170178	          0.00000000	          0.00000000	          0.00000000	          0.00000000	          0.00000000	          0.00000000	          0.00000000	          0.10031844	          0.00000000	          0.00000000	          0.00000000	          0.00000000	
          2.35000000	         11.68944266	         47.06501886	         -1.47779448	          0.48998088	          0.00000000	          0.05127541	          0.00000000	          0.00000000	          0.00000000	          0.00000000	          0.00000000	          0.00000000	          0.00000000	          0.09541184	          0.00000000	          0.00000000	          0.00000000	          0.00000000	
          2.35100000	         10.64488594	         44.19951802	         -1.73886869	          0.49137059	          0.00000000	          0.05161673	          0.00000000	          0.00000000	          0.00000000	          0.00000000	          0.00000000	          0.00000000	          0.00000000	          0.08521649	          0.00000000	          0.00000000	          0.00000000	          0.00000000	
          2.35200000	          9.64466658	         41.60967409	         -1.99756595	          0.49284563	          0.00000000	          0.05281870	          0.00000000	          0.00000000	          0.00000000	          0.00000000	          0.00000000	          0.00000000	          0.00000000	          0.07124528	          0.00000000	          0.00000000	          0.00000000	          0.00000000	
          2.35300000	          8.68751140	         39.18540074	         -2.24344605	          0.49385380	          0.00000000	          0.05457523	          0.00000000	          0.00000000	          0.00000000	          0.00000000	          0.00000000	          0.00000000	          0.00000000	          0.06043591	          0.00000000	          0.00000000	          0.00000000	          0.00000000	
          2.35400000	          7.77785076	         36.78632746	         -2.46930761	          0.49388363	          0.00000000	          0.05634482	          0.00000000	          0.00000000	          0.00000000	          0.00000000	          0.00000000	          0.00000000	          0.00000000	          0.06401093	          0.00000000	          0.00000000	          0.00000000	          0.00000000	
          2.35500000	          6.90867393	         34.26516918	         -2.66045212	          0.49302455	          0.00000000	          0.05766843	          0.00000000	          0.00000000	          0.00000000	          0.00000000	          0.00000000	          0.00000000	          0.00000000	          0.08831739	          0.00000000	          0.00000000	          0.00000000	          0.00000000	
          2.35600000	          6.04570092	         31.46111711	         -2.79088187	          0.49222529	          0.00000000	          0.05820433	          0.00000000	          0.00000000	          0.00000000	          0.00000000	          0.00000000	          0.00000000	          0.00000000	          0.12547231	          0.00000000	          0.00000000	          0.00000000	          0.00000000	
          2.35700000	          5.14429718	         28.18545208	         -2.81930441	          0.49278124	          0.00000000	          0.05765253	          0.00000000	          0.00000000	          0.00000000	          0.00000000	          0.00000000	          0.00000000	          0.00000000	          0.15654651	          0.00000000	          0.00000000	          0.00000000	          0.00000000	
          2.35800000	          4.17991860	         24.23162451	         -2.68988076	          0.49530881	          0.00000000	          0.05588508	          0.00000000	          0.00000000	          0.00000000	          0.00000000	          0.00000000	          0.00000000	          0.00000000	          0.16483420	          0.00000000	          0.00000000	          0.00000000	          0.00000000	
          2.35900000	          3.16162443	         19.45526735	         -2.35544622	          0.49935317	          0.00000000	          0.05306539	          0.00000000	          0.00000000	          0.00000000	          0.00000000	          0.00000000	          0.00000000	          0.00000000	          0.14571064	          0.00000000	          0.00000000	          0.00000000	          0.00000000	
          2.36000000	          2.14230722	         14.01364569	         -1.82506230	          0.50410397	          0.00000000	          0.04951866	          0.00000000	          0.00000000	          0.00000000	          0.00000000	          0.00000000	          0.00000000	          0.00000000	          0.10703723	          0.00000000	          0.00000000	          0.00000000	          0.00000000	
          2.36100000	          1.22746965	          8.59433508	         -1.19987814	          0.50943657	          0.00000000	          0.04529584	          0.00000000	          0.00000000	          0.00000000	          0.00000000	          0.00000000	          0.00000000	          0.00000000	          0.06334125	          0.00000000	          0.00000000	          0.00000000	          0.00000000	
          2.36200000	          0.00000000	          0.00000000	          0.00000000	          0.00000000	          0.00000000	          0.00000000	          0.00000000	          0.00000000	          0.00000000	          0.00000000	          0.00000000	          0.00000000	          0.00000000	          0.00000000	          0.00000000	          0.00000000	          0.00000000	          0.00000000	
          2.36300000	          0.00000000	          0.00000000	          0.00000000	          0.00000000	          0.00000000	          0.00000000	          0.00000000	          0.00000000	          0.00000000	          0.00000000	          0.00000000	          0.00000000	          0.00000000	          0.00000000	          0.00000000	          0.00000000	          0.00000000	          0.00000000	
